<?xml version="1.0" encoding="UTF-8"?>
<svg width="24px" height="16px" viewBox="0 0 24 16" version="1.1" xmlns="http://www.w3.org/2000/svg" xmlns:xlink="http://www.w3.org/1999/xlink">
    <!-- Generator: Sketch 47 (45396) - http://www.bohemiancoding.com/sketch -->
    <title>behance-logo</title>
    <desc>Created with Sketch.</desc>
    <defs></defs>
    <g id="Page-1" stroke="none" stroke-width="1" fill="none" fill-rule="evenodd">
        <g id="Desktop-HD-Copy-3" transform="translate(-1175.000000, -802.000000)" fill-rule="nonzero" fill="#000000">
            <g id="Group" transform="translate(1115.000000, 799.000000)">
                <g id="behance-logo" transform="translate(60.000000, 3.000000)">
                    <path d="M9.31636725,6.84787082 C9.31636725,6.84787082 11.5006438,6.67796789 11.5006438,3.99360253 C11.5006438,1.30948962 9.71346463,0 7.44943125,0 L3.2823183,0 L3.15991207,0 L0,0 L0,14.9994248 L3.15991207,14.9994248 L3.2823183,14.9994248 L7.44943125,14.9994248 C7.44943125,14.9994248 11.9970155,15.150141 11.9970155,10.5723552 C11.9972565,10.5723552 12.1955642,6.84787082 9.31636725,6.84787082 Z M3.2823183,2.66618852 L6.91330159,2.66618852 L7.44967221,2.66618852 C7.44967221,2.66618852 8.46241511,2.66618852 8.46241511,4.22661948 C8.46241511,5.78705043 7.86652808,6.01325106 7.19136614,6.01325106 L3.2823183,6.01325106 L3.2823183,2.66618852 Z M7.2573884,12.3339936 L3.2823183,12.3339936 L3.2823183,8.32524373 L7.44943125,8.32524373 C7.44943125,8.32524373 8.95878684,8.30504724 8.95878684,10.3852852 C8.95878684,12.1199109 7.85496214,12.3165741 7.2573884,12.3339936 Z" id="Shape"></path>
                    <rect id="Rectangle-path" x="16" y="1" width="6" height="2"></rect>
                    <path d="M18.7526594,4 C13.0000687,4 13.0051043,10.0126608 13.0051043,10.0126608 C13.0051043,10.0126608 12.6108222,15.9955559 18.7529112,15.9955559 C18.7529112,15.9955559 23.8717803,16.3016416 23.8717803,11.8333701 L21.2392047,11.8333701 C21.2392047,11.8333701 21.3270747,13.5168414 18.8407812,13.5168414 C18.8407812,13.5168414 16.2084574,13.7009669 16.2084574,10.7931529 L23.9593986,10.7931529 C23.9593986,10.7931529 24.807382,4 18.7526594,4 Z M21.0926707,8.70428934 L16.1787477,8.70428934 C16.1787477,8.70428934 16.5002664,6.29195485 18.8110716,6.29195485 C21.1221286,6.29169143 21.0926707,8.70428934 21.0926707,8.70428934 Z" id="Shape"></path>
                </g>
            </g>
        </g>
    </g>
</svg>