<?xml version="1.0" encoding="UTF-8"?>
<svg width="19px" height="19px" viewBox="0 0 19 19" version="1.1" xmlns="http://www.w3.org/2000/svg" xmlns:xlink="http://www.w3.org/1999/xlink">
    <!-- Generator: Sketch 47 (45396) - http://www.bohemiancoding.com/sketch -->
    <title>dribbble-logo</title>
    <desc>Created with Sketch.</desc>
    <defs></defs>
    <g id="Page-1" stroke="none" stroke-width="1" fill="none" fill-rule="evenodd">
        <g id="Desktop-HD-Copy-3" transform="translate(-1239.000000, -799.000000)" fill-rule="nonzero" fill="#000000">
            <g id="Group" transform="translate(1115.000000, 799.000000)">
                <g id="dribbble-logo" transform="translate(124.000000, 0.000000)">
                    <path d="M17.726248,4.73134808 C16.8767046,3.27593528 15.7243531,2.12358905 14.2688903,1.27409277 C12.8131676,0.424639823 11.2240429,0 9.50030328,0 C7.77673693,0 6.18713572,0.424639823 4.73167295,1.27409277 C3.27612352,2.12345907 2.12377204,3.2758053 1.27422856,4.73134808 C0.424641759,6.18697752 0,7.77657149 0,9.5 C0,11.2235152 0.424771738,12.8128492 1.27409858,14.2685653 C2.12359873,15.7239781 3.27595022,16.8763243 4.73149964,17.7259072 C6.18713572,18.5753169 7.77660695,19 9.50012998,19 C11.223653,19 12.8132975,18.5753169 14.268847,17.7259072 C15.7243097,16.8766276 16.8766179,15.7239781 17.7260747,14.2685653 C18.5754016,12.8129792 19,11.2234285 19,9.5 C19.0000433,7.77639818 18.5754016,6.18676089 17.726248,4.73134808 Z M9.50017331,1.38544104 C11.5452213,1.38544104 13.3306577,2.06163262 14.8562226,3.41397246 L14.7015908,3.63030005 C14.639764,3.71703904 14.4851322,3.88384481 14.2378253,4.13136724 C13.990475,4.37867303 13.7203784,4.6138475 13.4276655,4.83645738 C13.1346926,5.05915391 12.7370431,5.31269867 12.2338073,5.59722165 C11.7307448,5.88174463 11.1947543,6.13134671 10.6256624,6.34572462 C9.67737816,4.5972969 8.66315115,3.02221721 7.5828081,1.62039887 C8.23439339,1.46373143 8.87345735,1.38544104 9.50017331,1.38544104 Z M3.14220171,4.4651954 C3.93381783,3.46756694 4.8985228,2.70052037 6.03666323,2.16457561 C7.05920891,3.52523408 8.06520391,5.08393648 9.05486487,6.84037954 C6.54791441,7.50010718 4.04928261,7.82999266 1.55879617,7.82986268 C1.82282707,6.58471179 2.35058559,5.46304049 3.14220171,4.4651954 Z M1.92975655,12.4256865 C1.56685487,11.4979865 1.38544736,10.522671 1.38544736,9.5 C1.38544736,9.38449242 1.38969334,9.2978834 1.3978387,9.24021627 C4.38324227,9.24021627 7.15829632,8.85686629 9.7229575,8.08977639 C9.98690175,8.60102523 10.20544,9.05872293 10.3786155,9.4629128 C10.3452108,9.47937674 10.2920061,9.49783369 10.2177447,9.51850028 C10.1432666,9.53912353 10.0898019,9.55342117 10.0565272,9.56178312 L9.59895743,9.72256655 C9.28544781,9.83807413 8.87506043,10.0360314 8.36809857,10.3162651 C7.86100672,10.5969321 7.32293652,10.9307169 6.75388797,11.3183995 C6.18483942,11.7061254 5.59724718,12.2194539 4.99119791,12.8587749 C4.38506198,13.497836 3.87584714,14.1841659 3.46351007,14.9180679 C2.80377943,14.1841659 2.29257158,13.3531266 1.92975655,12.4256865 Z M9.50017331,17.6146889 C7.57041675,17.6146889 5.84689373,16.9961212 4.32947425,15.7592456 L4.51504109,15.8953764 C4.80363805,15.2602147 5.22827981,14.6499222 5.789183,14.0645423 C6.34999954,13.4791624 6.89010608,13.0068205 7.40963259,12.6479931 C7.9291591,12.2895123 8.494005,11.9514382 9.10434358,11.6335541 C9.71455219,11.3162765 10.1307886,11.1140299 10.3536595,11.0277242 C10.576357,10.9411585 10.7536919,10.8729631 10.8856207,10.823398 L10.91023,10.8109633 L10.9351427,10.8109633 C11.7430495,12.9303064 12.3205901,14.9838371 12.6668111,16.9712519 C11.6442221,17.4002677 10.588835,17.614559 9.50017331,17.6146889 Z M16.3286693,13.8851286 C15.718374,14.8294659 14.9553966,15.6109834 14.0403004,16.2292479 C13.7019214,14.3326013 13.1744228,12.3985643 12.4567648,10.4277867 C14.0978378,10.171859 15.7842301,10.2916558 17.5160285,10.7862674 C17.3345343,11.9078087 16.9386613,12.9409647 16.3286693,13.8851286 Z M17.4911158,9.38869506 C17.4086657,9.37231777 17.3054623,9.35360086 17.1818089,9.33310758 C17.0581554,9.3126143 16.9075096,9.28774508 16.7301748,9.25888985 C16.5530999,9.23003462 16.3548817,9.20330237 16.1365168,9.1785198 C15.9179353,9.15378055 15.6850127,9.13116429 15.4374025,9.11054103 C15.1900956,9.08983112 14.9261513,9.07349715 14.6459164,9.06101921 C14.3652048,9.04871458 14.0808538,9.04247561 13.7921702,9.04247561 C13.5037899,9.04247561 13.200462,9.05083756 12.8831397,9.06721486 C12.5657307,9.08346217 12.2586333,9.11266401 11.9618044,9.15382388 C11.9368917,9.11253403 11.9060433,9.04446862 11.868956,8.9495843 C11.8319119,8.85482996 11.8048763,8.7825619 11.7888888,8.73308341 C11.632004,8.38673398 11.4505099,7.99497872 11.2441464,7.55803427 C11.8131949,7.32697579 12.3555544,7.06112639 12.8712682,6.76005281 C13.3865054,6.45897924 13.7985392,6.19113683 14.1079762,5.95613567 C14.4172831,5.72087455 14.7099961,5.47140245 14.9862017,5.20758938 C15.2625806,4.94373298 15.4416918,4.76033329 15.5244452,4.657217 C15.6070253,4.5539274 15.685316,4.45297742 15.7594474,4.35415042 L15.7718821,4.34167248 C16.9758353,5.80956323 17.5904632,7.50002052 17.6148993,9.41339098 L17.4911158,9.38869506 Z" id="Shape"></path>
                </g>
            </g>
        </g>
    </g>
</svg>