<svg id="Calque_1" data-name="Calque 1" xmlns="http://www.w3.org/2000/svg" viewBox="0 0 682.69 293.13"><defs><style>.cls-1{fill:#2abb9b;}</style></defs><title>Léna10</title><path class="cls-1" d="M100.77,573.55a120.59,120.59,0,0,0,20,49.47c9.79,14,23,28,39.08,34.59,8.39,3.43,17.74,4.34,26.2.6,8.17-3.62,14.17-10.83,19.53-17.74a131.52,131.52,0,0,0,23.75-49c3.73-15.18,6.44-32.86-1.16-47.32-7.69-14.63-24.75-15.44-34.71-2.56-5.59,7.23-9.43,16-13.72,24-4.82,9-9.6,18.08-14.41,27.11-9.46,17.8-19,35.56-29.07,53s-20.57,34.53-32,51c-5.86,8.44-12,16.73-18.37,24.76-5.59,7-11.5,14.74-19.64,18.91-6.1,3.12-13.74,3.12-18.84-2-5.31-5.33-1.28-11.8,4.84-14.08,8.51-3.16,17.34,1.8,24.4,6.21,9.36,5.84,18.49,12.08,27.72,18.13C119.67,758.69,136.49,772,156,769.89c14.74-1.59,26.44-11.34,34.11-23.6s12.66-28.37,12.19-43c-.22-7-2-14.92-7.12-20.06a16,16,0,0,0-19.27-2.55c-14.19,8.26-14.83,31.58-13.13,45.72,2,16.9,10.28,32.92,25.51,41.44,14.17,7.93,31.37,7.64,44.24-2.64,11.29-9,16.65-23.62,19.37-37.36a177.14,177.14,0,0,0,2.77-22l-11.18,3c11,14.83,11.17,40.67,30.83,47.93,11.74,4.34,23.81-1.71,30.84-11.27,8.81-12,7.83-27.63,6.44-41.65l-11.78,1.6c4.49,14.8,9.43,30.63,20.78,41.75,10.16,10,25.19,15.6,39.1,10.89,7.28-2.46,4.16-14-3.19-11.57-11,3.72-22.17-1.65-29.49-10-8.38-9.54-12-22.4-15.63-34.28-1.88-6.18-12.48-5.41-11.79,1.59,1.08,11,2.85,24-3.53,33.78-4.58,7-14,11.79-21.32,5.82-5.39-4.37-7.81-12.1-10.19-18.34-2.93-7.71-5.74-15.66-10.71-22.33-3.55-4.75-10.75-3.21-11.18,3-1.49,21.32-8.26,61-38.46,55.29-15.4-2.93-25.44-16-28.68-30.72a66.88,66.88,0,0,1-.45-24.35c.71-4.54,2.36-14.12,7.92-15.43s7.1,8.33,7.28,12a62.14,62.14,0,0,1-2.61,19.29c-3.3,12-9.68,24.73-20.48,31.62-13.72,8.76-28.36,2.9-41-5-16.12-10-31.35-21.89-48-31.06-13.06-7.21-31-9.76-41.26,3.55-9,11.63-1.93,26.21,10.5,31.38,15,6.25,29.42-2.64,39.45-13.59,11.8-12.87,22-27.56,31.77-42,20.2-29.88,37.55-61.55,54.5-93.35,8.49-15.93,16.8-32,25.5-47.77,2.51-4.55,7.12-13.71,13.76-11.35,4.85,1.73,6.89,8.63,7.86,13.08,3.14,14.32-1.88,31.58-6.88,44.94-5.59,14.92-14.67,31-26.92,41.47-13.89,11.88-31.38-1.07-41.92-11.25a109.12,109.12,0,0,1-26.11-39.33,116.25,116.25,0,0,1-6.09-22.91c-1.23-7.6-12.79-4.38-11.57,3.19Z" transform="translate(-32.87 -532.47)"/><path class="cls-1" d="M383,696.18a46.69,46.69,0,0,0-26.26,31.37c-2.5,10.78,1.1,26.8,13.84,29.08,13.29,2.39,26.24-13.69,32-23.79a63.63,63.63,0,0,0,7.54-41.09c-1.07-7.23-11.11-4.52-11.79,1.6-1.82,16.5-.45,34.64,10.4,48,9.31,11.47,25.86,18.1,40.06,12.29,7.06-2.88,4-14.49-3.19-11.57-10.77,4.4-22.8-.88-29.11-10.28-7.53-11.23-7.59-25.51-6.16-38.46l-11.79,1.59A49.65,49.65,0,0,1,394,723.57a51.67,51.67,0,0,1-8,12c-2.82,3.1-7.4,8.27-11.73,9.18-7.59,1.59-6.3-13-5.08-16.79,3.14-9.82,10.67-17.3,20-21.41,7-3.11.95-13.45-6.06-10.36Z" transform="translate(-32.87 -532.47)"/><path class="cls-1" d="M474,586.67c10.87,36.9,21.8,74.28,22.28,113l11.79-1.59a719.4,719.4,0,0,1-18.75-112.83l-9,5.18a91.73,91.73,0,0,0,74.17,4.37c8.25-3.15,30.65-11.4,20.9-23.33a12.52,12.52,0,0,0-15.2-3.22c-5.55,2.81-8.35,8.44-11.09,13.74a483,483,0,0,0-34.21,85c-8.78,29.65-15.71,60.77-16.46,91.78-.38,16.12.18,34.6,6.67,49.62,5.48,12.69,19.88,22.06,33.25,14.53,6.73-3.78.69-14.15-6.06-10.36-6.3,3.55-12.7-2-15.51-7.41-3.78-7.24-4.78-16.39-5.57-24.38-1.82-18.28-.53-36.76,2.39-54.85a461.13,461.13,0,0,1,28.88-101.25c3.83-9.35,8-18.56,12.47-27.63,2.11-4.29,4.23-8.58,6.52-12.77.78-1.43,1.54-3.25,2.84-4.3,2.14-1.75,1.15,0,1.53-2.64l2.75-3.59c-23.77,17.06-56.11,19.91-82.22,6.38-3.71-1.92-9.43.37-9,5.18a739.41,739.41,0,0,0,19.18,116c1.63,6.56,11.87,5.18,11.78-1.6-.49-39.84-11.53-78.3-22.71-116.23-2.18-7.39-13.76-4.25-11.57,3.19Z" transform="translate(-32.87 -532.47)"/><path class="cls-1" d="M595,677.84c-13-10.45-29.89-5.05-39.4,7.32-10.12,13.17-13.81,31.38-11.35,47.64,1,6.81,3.86,13.62,10.36,16.84,6.79,3.35,15.18,1.09,20.59-3.81,6-5.47,8.79-13.74,11-21.37A123.61,123.61,0,0,0,590.71,696h-12c-.34,12.64-.48,26.64,6.52,37.74,5.66,9,16.15,15.84,27,14.89,11.94-1,19.48-11.1,22.79-21.81a61.1,61.1,0,0,0-2-40.2l-5.78,7.59c15.73-1.88,10.59,24.23,10.7,32.67.13,10.78,4.71,23.54,16.07,27,12.46,3.74,24.13-5.75,29.84-16.06a54.51,54.51,0,0,0,4.74-39.92c-1.79-6.91-11.19-4.85-11.79,1.6a56.29,56.29,0,0,0,8,34.44c5.51,9,16.51,20.63,27.86,13.68,6.57-4,.55-14.41-6.06-10.36-5.21,3.19-12.82-11.36-14.37-14.89a45.71,45.71,0,0,1-3.43-22.87l-11.78,1.59c2.87,11.14,1.48,23.78-5.18,33.4-2.71,3.92-7.38,8.49-12.55,8.22-4.57-.25-7.12-4.54-8.32-8.49-3.41-11.29,1.88-23.39-1.6-34.81-2.91-9.5-11.5-18.43-22.13-17.16-3.41.41-7.4,3.58-5.79,7.6,3.7,9.23,5.13,19.2,3.18,29-1.45,7.26-5,17.26-13.7,17.87-7.22.51-13.85-5.43-16.79-11.54-4.3-8.95-3.75-19.52-3.49-29.18.22-7.74-11.63-7.69-12,0-.55,11.63-2.46,24.32-7.48,35-1.76,3.72-5.66,9.61-10.68,8.17-4.19-1.2-4.62-7.87-4.89-11.39a54.45,54.45,0,0,1,7.31-32.2c4.38-7.21,15-16,23.54-9.21,6,4.79,14.51-3.65,8.48-8.48Z" transform="translate(-32.87 -532.47)"/><path class="cls-1" d="M690.61,641.65v-2a6.24,6.24,0,0,0-1.75-4.25,6,6,0,0,0-8.49,0,6.25,6.25,0,0,0-1.76,4.25v2a6.16,6.16,0,0,0,1.76,4.24,6,6,0,0,0,8.49,0,6.24,6.24,0,0,0,1.75-4.24Z" transform="translate(-32.87 -532.47)"/><path class="cls-1" d="M217.7,669.9a191.75,191.75,0,0,0,91.5-68.24c4.55-6.25-5.86-12.24-10.36-6a177.77,177.77,0,0,1-84.33,62.72c-7.24,2.54-4.12,14.14,3.19,11.57Z" transform="translate(-32.87 -532.47)"/></svg>