<?xml version="1.0" encoding="UTF-8"?>
<svg width="20px" height="17px" viewBox="0 0 20 17" version="1.1" xmlns="http://www.w3.org/2000/svg" xmlns:xlink="http://www.w3.org/1999/xlink">
    <!-- Generator: Sketch 47 (45396) - http://www.bohemiancoding.com/sketch -->
    <title>twitter-logo-silhouette</title>
    <desc>Created with Sketch.</desc>
    <defs></defs>
    <g id="Page-1" stroke="none" stroke-width="1" fill="none" fill-rule="evenodd">
        <g id="Desktop-HD-Copy-3" transform="translate(-1299.000000, -801.000000)" fill-rule="nonzero" fill="#010002">
            <g id="Group" transform="translate(1115.000000, 799.000000)">
                <g id="twitter-logo-silhouette" transform="translate(184.000000, 2.000000)">
                    <path d="M20.0040001,1.97232332 C19.2677406,2.30701837 18.4777447,2.53400473 17.6477081,2.63534211 C18.4952319,2.11467183 19.1439901,1.28881572 19.4514704,0.30776788 C18.6564735,0.78994203 17.7789437,1.14006236 16.8439186,1.32986038 C16.0951729,0.51040912 15.0301542,0 13.8488703,0 C11.5825965,0 9.74506916,1.88513695 9.74506916,4.20885486 C9.74506916,4.53841933 9.7813183,4.8603047 9.85133242,5.16810611 C6.44129855,4.99239205 3.41751903,3.31630118 1.39374503,0.7694197 C1.0399809,1.39011958 0.838731178,2.11336403 0.838731178,2.88539932 C0.838731178,4.34607279 1.56374662,5.63488851 2.66377231,6.38891647 C1.99125111,6.36584561 1.35873797,6.17604759 0.804998888,5.86056707 L0.804998888,5.91314716 C0.804998888,7.95216805 2.22002272,9.65391182 4.09628332,10.0412205 C3.75252121,10.1361195 3.39002983,10.1886996 3.01501959,10.1886996 C2.75003153,10.1886996 2.49377071,10.1617724 2.24251091,10.1104666 C2.76500186,11.7840089 4.28004586,13.0009965 6.07508093,13.0343621 C4.6713012,14.162889 2.90127117,14.8335869 0.978759408,14.8335869 C0.647516159,14.8335869 0.321241232,14.8130646 0,14.7758762 C1.81628119,15.972375 3.97256557,16.6700001 6.2900916,16.6700001 C13.8389337,16.6700001 17.9652558,10.2553972 17.9652558,4.69233681 L17.9514948,4.1473214 C18.7577358,3.55737149 19.4552293,2.81615323 20.0040001,1.97232332 Z" id="Shape"></path>
                </g>
            </g>
        </g>
    </g>
</svg>